<?xml version="1.0" encoding="utf-8"?>
<!-- Generator: Adobe Illustrator 25.2.0, SVG Export Plug-In . SVG Version: 6.00 Build 0)  -->
<svg version="1.1" id="Layer_1" xmlns="http://www.w3.org/2000/svg" xmlns:xlink="http://www.w3.org/1999/xlink" x="0px" y="0px"
	 viewBox="0 0 1761 703" style="enable-background:new 0 0 1761 703;" xml:space="preserve">
<style type="text/css">
	.st0{fill:#800000;}
</style>
<path d="M748.5,294c-0.9-0.5-1.8-1-2.7-1.5c5-3.5,9.2-7.8,12.5-12.9c5.2-8.1,7.9-17.6,7.9-28.2c0-19.5-5.4-34.5-16.1-44.7
	s-26.7-15.3-47.7-15.3h-78.2c-12.9-0.2-23.5,10.1-23.7,22.9c0,0.3,0,0.5,0,0.8v179.4c-0.2,12.9,10.1,23.5,22.9,23.7
	c0.3,0,0.5,0,0.8,0h77.3c8.4,0,16.7-1,24.9-2.7c8.9-1.9,17.3-5.4,24.9-10.5c8.2-5.5,14.8-13.1,19.2-22c4.8-9.3,7.2-21.4,7.2-35.7
	c0-13.3-2.8-24.4-8.3-33.1C764.2,305.8,757,298.9,748.5,294z M650.5,322.6h48.9c4.5,0,8.9,0.5,13.3,1.4c4.2,0.8,8,3,10.7,6.3
	c2.9,3.2,4.4,8.9,4.4,17c0,8.8-2.2,15.1-6.8,19.3s-11.1,6.5-19.4,6.5h-51.1L650.5,322.6z M711,271.6c-3.6,3.1-8.3,4.8-13.1,4.8
	h-47.4v-38.9h46.5c6.1,0,10.8,1.6,14.3,4.8c3.4,3.1,5.1,8.4,5.1,15.9C716.3,264.2,714.6,268.6,711,271.6L711,271.6z"/>
<path d="M1005.7,222.5c-9.9-10.7-21.8-19.3-35.1-25.2c-14-6.1-29.1-9.2-44.3-9.1c-30-0.4-58.8,12.1-79.1,34.3
	c-9.9,10.8-17.6,23.4-22.8,37.1c-10.8,29.2-10.8,61.2,0,90.3c5.2,13.7,12.9,26.3,22.8,37.1c40.5,43.8,108.8,46.4,152.6,5.9
	c2-1.9,4-3.9,5.9-5.9c9.9-10.8,17.6-23.4,22.8-37.1c10.8-29.1,10.8-61.2,0-90.3C1023.3,245.9,1015.6,233.3,1005.7,222.5z
	 M986.7,304.8c0.2,12.3-2.5,24.5-7.9,35.6c-4.8,10-12.2,18.7-21.4,25c-8.9,6-19.3,9.1-31.2,9.1s-22.3-3.1-31.2-9.1
	c-9.2-6.3-16.5-14.9-21.2-25c-5.3-11.1-7.9-23.3-7.7-35.6c0-13.3,2.6-25.3,7.7-35.8c4.8-10,12.1-18.6,21.2-24.9
	c8.9-6,19.4-9.1,31.2-9.1s22.3,3.1,31.2,9.1c9.2,6.3,16.6,14.9,21.4,25C984.2,280.2,986.9,292.4,986.7,304.8z"/>
<path d="M1261.1,225c-8.3-10.5-18.9-19-31-24.8c-12.2-5.9-26.3-8.9-41.8-8.9h-74.2c-12.9-0.2-23.5,10.1-23.7,22.9c0,0.3,0,0.5,0,0.8
	v179.4c-0.2,12.9,10.1,23.5,22.9,23.7c0.3,0,0.5,0,0.8,0h74.2c21,0,39-5.2,53.5-15.5s25.6-24.1,33.1-41.2
	c7.5-17,11.3-36.1,11.3-56.7c0.1-14.7-2-29.4-6.3-43.5C1276,248.1,1269.6,235.8,1261.1,225z M1236.3,304.8
	c0.1,11.8-1.7,23.5-5.5,34.6c-3.5,10.2-9.1,18.4-16.7,24.5c-7.4,6-17.1,9-29,9h-46.4V236.6h46.4c8.8,0,16.5,1.8,22.8,5.3
	c6.3,3.5,11.7,8.5,15.8,14.5c4.4,6.6,7.6,14,9.4,21.8C1235.3,286.9,1236.3,295.8,1236.3,304.8L1236.3,304.8z"/>
<path d="M1500.9,191.4c-6.3-0.1-12.3,2.3-16.9,6.6c-4.8,4.3-7.6,10.5-7.4,17v66.6h-89.5v-66.6c0.1-6.4-2.5-12.6-7.2-17
	c-4.4-4.3-10.3-6.7-16.5-6.7c-7.1,0-13,2.3-17.6,6.8c-4.6,4.4-7.1,10.6-7,16.9v179.4c-0.1,6.3,2.2,12.3,6.6,16.8
	c4.4,4.6,10.3,6.9,17.4,6.9c6.3,0,12.3-2.4,16.9-6.7c4.8-4.3,7.5-10.5,7.4-17v-67.6h89.5v67.5c-0.1,6.4,2.5,12.6,7.2,17
	c4.4,4.3,10.3,6.8,16.5,6.7c7.3,0,13.3-2.3,17.8-6.8c4.5-4.4,7-10.6,6.8-16.9V215.1c0.1-6.3-2.2-12.3-6.6-16.8
	C1513.8,193.7,1508,191.4,1500.9,191.4z"/>
<path d="M1628.2,198.1c-4.4-4.3-10.3-6.7-16.5-6.7c-7,0-13,2.3-17.6,6.8c-4.6,4.4-7.1,10.6-7,16.9v179.4c-0.1,6.3,2.2,12.3,6.6,16.8
	c4.4,4.6,10.3,6.9,17.4,6.9c6.3,0,12.3-2.4,16.9-6.7c4.8-4.3,7.5-10.5,7.4-17V215.1C1635.6,208.6,1632.9,202.4,1628.2,198.1z"/>
<path d="M608.5,492.3c4.2,0,7.7,3.4,7.7,7.6c0,0,0,0,0,0v115.5c0,2.1-0.8,4-2.3,5.4c-1.5,1.5-3.5,2.3-5.5,2.2
	c-4.2,0.2-7.7-3-7.8-7.2c0-0.2,0-0.3,0-0.5V500c0-2,0.8-4,2.2-5.4C604.3,493,606.4,492.2,608.5,492.3z M607.8,549.3h86.9l-0.2,14.6
	h-87.3L607.8,549.3z M694.5,492.3c4.1-0.2,7.7,3,7.8,7.2c0,0.2,0,0.4,0,0.5v115.5c0,2-0.8,4-2.2,5.4c-1.5,1.5-3.6,2.3-5.8,2.2
	c-4.2,0-7.7-3.4-7.7-7.7V500c0-2.1,0.8-4,2.3-5.4C690.5,493.1,692.5,492.3,694.5,492.3L694.5,492.3z"/>
<path d="M950.3,557.7c0.1,9.1-1.5,18.1-4.7,26.6c-3,7.9-7.4,15.2-13.2,21.4c-5.6,6.1-12.4,10.9-20,14.2c-16.2,6.7-34.3,6.7-50.5,0
	c-7.6-3.3-14.4-8.1-20-14.2c-5.7-6.2-10.2-13.5-13.1-21.4c-6.1-17.2-6.1-36,0-53.3c2.9-7.9,7.4-15.2,13.1-21.4
	c5.6-6.1,12.4-10.9,20-14.2c16.2-6.7,34.3-6.7,50.5,0c7.6,3.3,14.4,8.1,20,14.2c5.7,6.2,10.2,13.5,13.2,21.4
	C948.8,539.6,950.4,548.6,950.3,557.7z M934.1,557.7c0.2-9.3-1.9-18.6-6-27c-3.7-7.6-9.4-14-16.5-18.6c-15-9-33.6-9-48.6,0
	c-7.1,4.5-12.8,10.9-16.5,18.5c-4,7.8-6,16.9-6,27.1c-0.2,9.3,1.9,18.6,6,27c3.7,7.6,9.4,14,16.5,18.6c15,9,33.6,9,48.6,0
	c7.1-4.6,12.8-11,16.5-18.6C932.2,576.3,934.2,567.1,934.1,557.7z"/>
<path d="M1079.9,492.1c1.3,0,2.5,0.4,3.7,0.9c1.3,0.6,2.3,1.5,3.1,2.6l49.6,74.8l-6.7-0.2l50.1-74.6c1.4-2.2,3.8-3.5,6.3-3.6
	c2,0.1,3.9,1,5.3,2.3c1.5,1.4,2.4,3.3,2.3,5.3v115.7c0,2-0.8,4-2.2,5.4c-3,3.1-7.9,3.2-11,0.3c-1.6-1.5-2.4-3.5-2.4-5.7V514.2
	l4.7,0.7l-44.2,67.1c-0.7,1-1.7,1.8-2.7,2.4c-2.2,1-4.7,1-6.8,0c-1.1-0.6-2-1.4-2.6-2.4l-43.6-66.9l3.9-5v105.5c0.1,2-0.7,3.9-2,5.4
	c-2.7,2.9-7.3,3-10.2,0.3c-0.1-0.1-0.2-0.2-0.3-0.3c-1.4-1.5-2.1-3.4-2.1-5.4V499.8C1072.2,495.5,1075.6,492.1,1079.9,492.1
	L1079.9,492.1z"/>
<path d="M1331,492.3h66.6c2,0,4,0.7,5.4,2.1c1.5,1.4,2.3,3.3,2.2,5.3c0.1,2-0.8,3.9-2.2,5.1c-1.5,1.3-3.4,2-5.4,2h-60.2l1.7-3.2
	v47.1l-1.9-2.1h52c2,0,4,0.7,5.4,2.1c1.5,1.4,2.3,3.4,2.2,5.4c0.1,2-0.8,3.9-2.2,5.2c-1.5,1.3-3.4,2-5.4,2h-51.4l1.3-1.9V610
	l-1.1-1.3h59.7c2,0,4,0.8,5.4,2.2c1.4,1.3,2.2,3.1,2.2,5c0.1,2-0.8,3.9-2.2,5.2c-1.5,1.4-3.4,2.1-5.4,2.1H1331
	c-4.2,0-7.7-3.4-7.7-7.6c0,0,0,0,0,0V500C1323.3,495.8,1326.7,492.3,1331,492.3C1331,492.3,1331,492.3,1331,492.3L1331,492.3z"/>
<path d="M1565.1,625c-9.2,0-17.3-1.4-24.3-4.1c-7.5-3.1-14.3-7.5-20.2-13.1c-0.9-0.8-1.6-1.7-2.2-2.8c-1.5-2.9-1-6.5,1.3-8.9
	c1.4-1.5,3.3-2.4,5.3-2.3c1.8,0,3.5,0.8,4.7,2.1c4.6,4.5,9.9,8.2,15.8,10.8c6.1,2.6,12.6,3.8,19.2,3.7c5,0.1,10.1-0.8,14.8-2.6
	c4-1.5,7.6-4,10.5-7.3c2.6-3,4-6.9,3.9-10.8c0.2-4.5-1.3-8.9-4.2-12.3c-3.2-3.5-7.2-6.2-11.6-8c-5.5-2.3-11.3-4.2-17.1-5.6
	c-5.4-1.3-10.7-2.9-15.8-5c-4.5-1.8-8.8-4.2-12.5-7.3c-3.5-2.9-6.3-6.5-8.2-10.7c-2-4.7-3-9.8-2.9-14.9c-0.1-6.6,1.8-13.1,5.6-18.6
	c4-5.5,9.4-9.8,15.6-12.4c7.2-3.1,15-4.6,22.9-4.5c7.4,0,14.7,1.2,21.6,3.7c6.2,2.1,11.8,5.6,16.4,10.3c2.5,2.4,3.7,4.7,3.7,7.1
	c-0.1,1.9-0.9,3.7-2.3,5c-1.4,1.5-3.3,2.3-5.3,2.3c-1.4,0-2.7-0.5-3.7-1.3c-2.3-2.5-5.1-4.7-8.1-6.4c-3.4-1.9-6.9-3.4-10.7-4.5
	c-3.7-1.1-7.6-1.7-11.5-1.7c-5.2-0.1-10.3,0.8-15.1,2.5c-4,1.4-7.5,3.8-10.2,7c-5,6.7-4.8,16,0.5,22.5c3.1,3.3,6.8,5.8,11,7.5
	c5,2.1,10.1,3.8,15.3,5.1c5.7,1.4,11.4,3.1,16.9,5.1c4.8,1.7,9.3,4.2,13.4,7.2c3.8,2.9,6.7,6.6,8.7,10.9c2.1,4.4,3.1,9.9,3.1,16.4
	c0.1,6.6-1.9,13-5.8,18.3c-4.1,5.5-9.5,9.9-15.8,12.7C1580.5,623.5,1572.8,625.1,1565.1,625z"/>
<path class="st0" d="M252.5,568.5c-12.6,0-22.8,10.2-22.8,22.8v40c0,12.6,10.2,22.8,22.8,22.8c12.6,0,22.8-10.2,22.8-22.8v-40
	C275.3,578.7,265.1,568.5,252.5,568.5z"/>
<path class="st0" d="M335.6,263.8c4.3-15.1,9.8-34,22-43.7c22.2-17.6,16.6-43.9-11.1-39.5c0,0,11.1-52.7,0-74.6
	s-44.4-39.5-44.4-39.5s0-22-33.3-26.4c0,0-5.5-26-16.4-30.7V9.2c0,0-0.1,0-0.1,0.1c0,0-0.1,0-0.1-0.1v0.1
	C241.4,14,235.9,40,235.9,40c-33.3,4.4-33.3,26.4-33.3,26.4s-33.3,17.6-44.4,39.5s0,74.6,0,74.6c-27.7-4.4-33.3,22-11.1,39.5
	c12.2,9.7,17.7,28.6,22,43.7C46,314.5-1.9,444.4,18.6,541.7c11.4,54,51.6,85.6,96.5,103.3c42.1-41.2,35.4-116.8,35.4-116.8H99.7
	l152.5-155.3l0.6,0.1l152.4,155.2h-50.9c0,0-6.7,75.7,35.4,116.8c44.9-17.7,85.2-49.3,96.5-103.3
	C506.6,444.4,458.8,314.5,335.6,263.8z"/>
</svg>
