<svg id="_19-photo" data-name="19-photo" xmlns="http://www.w3.org/2000/svg" width="18" height="17.752" viewBox="0 0 18 17.752">
  <g id="Glyph">
    <path id="Path_96" data-name="Path 96" d="M15.75,7V2.25A.75.75,0,0,0,15,1.5H7.964L7.421.415A.75.75,0,0,0,6.75,0h-3a.75.75,0,0,0-.671.415l-.75,1.5a.752.752,0,0,0-.079.335V6.994A4.325,4.325,0,0,0,0,10.5c0,2.762,3.48,4.962,8.078,5.224l-.939,1,1.094,1.027,2.111-2.25a.75.75,0,0,0-.017-1.044l-2.25-2.25L7.017,13.269l.943.943C4.366,13.95,1.5,12.356,1.5,10.5a2.315,2.315,0,0,1,.75-1.6v1.6a.75.75,0,0,0,.75.75H15a.75.75,0,0,0,.75-.75V8.9a2.316,2.316,0,0,1,.75,1.6c0,1.453-1.915,2.876-4.656,3.46l.312,1.467C15.706,14.671,18,12.737,18,10.5A4.326,4.326,0,0,0,15.75,7ZM9,9.75a3,3,0,1,1,3-3A3,3,0,0,1,9,9.75Z" fill="#fff"/>
    <circle id="Ellipse_11" data-name="Ellipse 11" cx="1.5" cy="1.5" r="1.5" transform="translate(7.5 5.25)" fill="#fff"/>
  </g>
</svg>
