<svg xmlns="http://www.w3.org/2000/svg" width="20.5" height="14.414" viewBox="0 0 20.5 14.414">
  <g id="bed" transform="translate(0 -76)">
    <g id="Group_1148" data-name="Group 1148" transform="translate(0 76)">
      <g id="Group_1147" data-name="Group 1147">
        <path id="Path_90" data-name="Path 90" d="M2.4,84.408V76H0V90.414H2.4v-2.4H18.1v2.4h2.4V84.408Z" transform="translate(0 -76)" fill="maroon"/>
      </g>
    </g>
    <g id="Group_1150" data-name="Group 1150" transform="translate(3.604 79.604)">
      <g id="Group_1149" data-name="Group 1149">
        <path id="Path_91" data-name="Path 91" d="M91.8,166a1.8,1.8,0,0,0-1.8,1.8v1.8h3.6v-1.8A1.8,1.8,0,0,0,91.8,166Z" transform="translate(-90 -166)" fill="maroon"/>
      </g>
    </g>
    <g id="Group_1152" data-name="Group 1152" transform="translate(8.408 79.604)">
      <g id="Group_1151" data-name="Group 1151">
        <path id="Path_92" data-name="Path 92" d="M220.29,166H211.8a1.8,1.8,0,0,0-1.8,1.8v1.8h12.092v-1.8A1.8,1.8,0,0,0,220.29,166Z" transform="translate(-210 -166)" fill="maroon"/>
      </g>
    </g>
  </g>
</svg>
