<svg id="cctv-camera" xmlns="http://www.w3.org/2000/svg" width="42.384" height="38.24" viewBox="0 0 42.384 38.24">
  <path id="Path_59" data-name="Path 59" d="M14.907,44.812,28.233,31.486l-6.519-6.519a1.263,1.263,0,0,0-1.785,0L0,44.812Z" transform="translate(0 -24.597)" fill="#810808"/>
  <path id="Path_60" data-name="Path 60" d="M130.142,175.094h-2.948a3.8,3.8,0,0,0-3.79,3.79v4.3h-3.072a3.96,3.96,0,0,0-5.509-2.282l-2.182-2.182,4.4-4.4a3.794,3.794,0,0,0,0-5.36l-1.363-1.363-10.327,10.327a1.264,1.264,0,0,1-.893.37H97.209l7.156,7.156a1.26,1.26,0,0,0,1.653-.114l4.834-4.834,2.182,2.182a3.958,3.958,0,1,0,7.3,3.022H123.4V190a3.8,3.8,0,0,0,3.79,3.79h2.948a1.264,1.264,0,0,0,1.263-1.263V176.357A1.264,1.264,0,0,0,130.142,175.094Z" transform="translate(-89.021 -155.552)" fill="#909090"/>
  <path id="Path_61" data-name="Path 61" d="M49.937,308.7l-1.372,1.372a1.263,1.263,0,0,0,0,1.787l4.717,4.717a1.263,1.263,0,0,0,1.787,0l1.372-1.372Z" transform="translate(-44.135 -284.767)" fill="#810808"/>
</svg>
