<svg xmlns="http://www.w3.org/2000/svg" width="14.92" height="19.893" viewBox="0 0 14.92 19.893">
  <path id="Icon_awesome-file-pdf" data-name="Icon awesome-file-pdf" d="M7.068,9.95A3.749,3.749,0,0,1,6.99,8.128C7.316,8.128,7.285,9.562,7.068,9.95ZM7,11.784a17.928,17.928,0,0,1-1.1,2.436,14.307,14.307,0,0,1,2.444-.851A5.033,5.033,0,0,1,7,11.784ZM3.345,16.633c0,.031.513-.21,1.356-1.562A5.37,5.37,0,0,0,3.345,16.633ZM9.636,6.217H14.92V18.961a.93.93,0,0,1-.932.932H.932A.93.93,0,0,1,0,18.961V.932A.93.93,0,0,1,.932,0H8.7V5.284A.935.935,0,0,0,9.636,6.217Zm-.311,6.675A3.9,3.9,0,0,1,7.666,10.8a5.585,5.585,0,0,0,.241-2.494A.973.973,0,0,0,6.05,8.043a6.46,6.46,0,0,0,.315,2.992,36.485,36.485,0,0,1-1.585,3.334s0,0-.008,0c-1.053.54-2.86,1.729-2.118,2.642a1.207,1.207,0,0,0,.835.389c.7,0,1.387-.7,2.374-2.4a22.147,22.147,0,0,1,3.069-.9,5.888,5.888,0,0,0,2.487.758,1.006,1.006,0,0,0,.765-1.686c-.54-.528-2.11-.377-2.86-.28ZM14.648,4.08,10.84.272A.932.932,0,0,0,10.18,0H9.947V4.973H14.92V4.736A.93.93,0,0,0,14.648,4.08ZM11.769,14c.159-.1-.1-.462-1.663-.35C11.547,14.263,11.769,14,11.769,14Z"/>
</svg>
