<svg xmlns="http://www.w3.org/2000/svg" width="20.287" height="18.214" viewBox="0 0 20.287 18.214">
  <path id="heart" d="M17.3,1.636A5.052,5.052,0,0,0,13.539,0a4.726,4.726,0,0,0-2.952,1.019A6.039,6.039,0,0,0,9.394,2.265,6.036,6.036,0,0,0,8.2,1.019,4.725,4.725,0,0,0,5.249,0,5.052,5.052,0,0,0,1.491,1.636,5.872,5.872,0,0,0,0,5.646a6.992,6.992,0,0,0,1.863,4.577A39.732,39.732,0,0,0,6.528,14.6c.646.551,1.379,1.175,2.139,1.84a1.1,1.1,0,0,0,1.452,0c.761-.665,1.494-1.29,2.14-1.841a39.71,39.71,0,0,0,4.664-4.378,6.992,6.992,0,0,0,1.863-4.577,5.872,5.872,0,0,0-1.49-4.01Zm0,0" transform="translate(0.749 0.75)" fill="none" stroke="#000" stroke-width="1.5"/>
</svg>
