<svg id="hospital" xmlns="http://www.w3.org/2000/svg" width="50.337" height="47.418" viewBox="0 0 50.337 47.418">
  <g id="Group_1191" data-name="Group 1191">
    <path id="Path_99" data-name="Path 99" d="M21.044,2.923c-1.7,0-3.3,1.657-4.5,2.861L1.59,20.745v17.15a3.4,3.4,0,0,0,3.4,3.4H37.1a3.4,3.4,0,0,0,3.4-3.4V20.745L25.544,5.784C24.343,4.58,22.74,2.923,21.044,2.923ZM31.421,28.229H24.538v6.884H17.55V28.229H10.663V21.244H17.55V14.357h6.988v6.887h6.884Z" transform="translate(4.124 6.124)" fill="#fff"/>
    <path id="Path_100" data-name="Path 100" d="M49.528,20.323,32.569,3.374a10.72,10.72,0,0,0-14.809,0L.812,20.323a2.766,2.766,0,0,0,0,3.914,2.832,2.832,0,0,0,3.907,0L21.671,7.282a5.059,5.059,0,0,1,6.991,0L45.614,24.237a2.746,2.746,0,0,0,1.952.805,2.762,2.762,0,0,0,1.963-4.72Z" transform="translate(0 -0.406)" fill="#cdcdcd"/>
  </g>
</svg>
