<svg id="Group_321" data-name="Group 321" xmlns="http://www.w3.org/2000/svg" width="17.465" height="17.465" viewBox="0 0 17.465 17.465">
  <g id="logo" transform="translate(0 0)">
    <path id="Path_54" data-name="Path 54" d="M12.645,0H4.82A4.825,4.825,0,0,0,0,4.82v7.825a4.825,4.825,0,0,0,4.82,4.82h7.825a4.825,4.825,0,0,0,4.82-4.82V4.82A4.825,4.825,0,0,0,12.645,0Zm3.27,12.645a3.274,3.274,0,0,1-3.27,3.27H4.82a3.274,3.274,0,0,1-3.27-3.27V4.82A3.274,3.274,0,0,1,4.82,1.55h7.825a3.274,3.274,0,0,1,3.27,3.27v7.825Z" transform="translate(0 0)" fill="#676767"/>
    <path id="Path_55" data-name="Path 55" d="M45.468,40.97a4.5,4.5,0,1,0,4.5,4.5A4.505,4.505,0,0,0,45.468,40.97Zm0,7.451a2.951,2.951,0,1,1,2.951-2.95A2.954,2.954,0,0,1,45.468,48.421Z" transform="translate(-36.736 -36.738)" fill="#676767"/>
    <path id="Path_56" data-name="Path 56" d="M120.057,28.251a1.136,1.136,0,1,0,.8.333A1.141,1.141,0,0,0,120.057,28.251Z" transform="translate(-106.636 -25.333)" fill="#676767"/>
  </g>
</svg>
