<svg xmlns="http://www.w3.org/2000/svg" width="22.021" height="16.705" viewBox="0 0 22.021 16.705">
  <g id="XMLID_574_" transform="translate(0 -5.539)">
    <path id="XMLID_580_" d="M91.271,393.723c0-.02,0-.041,0-.061,0-1.041-1.449-2.153-1.739-2.365l-.279-.2-.279.2c-.29.212-1.739,1.324-1.739,2.365,0,.021,0,.041,0,.061Z" transform="translate(-83.483 -374.039)" fill="maroon"/>
    <path id="XMLID_582_" d="M213.1,393.723c0-.02,0-.041,0-.061,0-1.041-1.449-2.153-1.739-2.365l-.279-.2-.279.2c-.29.212-1.739,1.324-1.739,2.365,0,.021,0,.041,0,.061Z" transform="translate(-200.073 -374.039)" fill="maroon"/>
    <path id="XMLID_583_" d="M0,482.245H22.021v1.269H0Z" transform="translate(0 -461.271)" fill="maroon"/>
    <path id="XMLID_584_" d="M334.932,393.723c0-.02,0-.041,0-.061,0-1.041-1.449-2.153-1.739-2.365l-.279-.2-.279.2c-.29.212-1.739,1.324-1.739,2.365,0,.021,0,.041,0,.061Z" transform="translate(-316.664 -374.039)" fill="maroon"/>
    <path id="XMLID_596_" d="M477.5,123.354h1.484v3.45H477.5Z" transform="translate(-456.963 -117.815)" fill="maroon"/>
    <path id="XMLID_597_" d="M80.973,123.354H64.5v8.659a2.5,2.5,0,0,0,2.471,2.17H78.5a2.5,2.5,0,0,0,2.471-2.17v-8.659Z" transform="translate(-61.726 -117.815)" fill="maroon"/>
    <path id="XMLID_598_" d="M1,123.354H2.441v3.45H1Z" transform="translate(-0.957 -117.815)" fill="maroon"/>
  </g>
</svg>
