<svg xmlns="http://www.w3.org/2000/svg" width="50.183" height="50.183" viewBox="0 0 50.183 50.183">
  <g id="pagoda" transform="translate(0 -0.001)">
    <g id="Group_1193" data-name="Group 1193" transform="translate(5.979 20.78)">
      <g id="Group_1192" data-name="Group 1192">
        <path id="Path_105" data-name="Path 105" d="M88.934,212H71.292A10.3,10.3,0,0,0,61,222.292v1.46H74.232c.04,0,.073.02.112.023a12.185,12.185,0,0,1,2.013-2.746l2.716-2.716a1.47,1.47,0,0,1,2.079,0l2.716,2.716a12.184,12.184,0,0,1,2.013,2.746c.039,0,.073-.023.112-.023H99.226v-1.46h0A10.3,10.3,0,0,0,88.934,212Z" transform="translate(-61 -212)" fill="#fff"/>
      </g>
    </g>
    <g id="Group_1195" data-name="Group 1195" transform="translate(20.681 30.21)">
      <g id="Group_1194" data-name="Group 1194">
        <path id="Path_106" data-name="Path 106" d="M217.088,309.888l-1.677-1.677-1.677,1.677a9.271,9.271,0,0,0-2.734,6.6v2.876h8.821v-2.876A9.271,9.271,0,0,0,217.088,309.888Z" transform="translate(-211 -308.211)" fill="#fff"/>
      </g>
    </g>
    <g id="Group_1197" data-name="Group 1197" transform="translate(32.028 35.482)">
      <g id="Group_1196" data-name="Group 1196">
        <path id="Path_107" data-name="Path 107" d="M326.768,362a12.27,12.27,0,0,1,.415,3.005v2.876h11.762V362Z" transform="translate(-326.768 -362)" fill="#cdcdcd"/>
      </g>
    </g>
    <g id="Group_1199" data-name="Group 1199" transform="translate(5.979 35.482)">
      <g id="Group_1198" data-name="Group 1198">
        <path id="Path_108" data-name="Path 108" d="M61,362v5.881H72.762v-2.876A12.267,12.267,0,0,1,73.177,362Z" transform="translate(-61 -362)" fill="#cdcdcd"/>
      </g>
    </g>
    <g id="Group_1201" data-name="Group 1201" transform="translate(13.939 44.303)">
      <g id="Group_1200" data-name="Group 1200">
        <path id="Path_109" data-name="Path 109" d="M158.636,452H148.092l-5.881,5.881h22.306Z" transform="translate(-142.211 -452)" fill="#fff"/>
      </g>
    </g>
    <g id="Group_1203" data-name="Group 1203" transform="translate(34.522 44.303)">
      <g id="Group_1202" data-name="Group 1202">
        <path id="Path_110" data-name="Path 110" d="M363.462,452H352.211l5.881,5.881H366.4a1.47,1.47,0,0,0,1.47-1.47A4.411,4.411,0,0,0,363.462,452Z" transform="translate(-352.211 -452)" fill="#cdcdcd"/>
      </g>
    </g>
    <g id="Group_1205" data-name="Group 1205" transform="translate(0 44.303)">
      <g id="Group_1204" data-name="Group 1204">
        <path id="Path_111" data-name="Path 111" d="M4.411,452A4.328,4.328,0,0,0,0,456.313a1.557,1.557,0,0,0,1.47,1.568H9.781L15.662,452Z" transform="translate(0 -452)" fill="#cdcdcd"/>
      </g>
    </g>
    <g id="Group_1207" data-name="Group 1207" transform="translate(14.8 0.001)">
      <g id="Group_1206" data-name="Group 1206">
        <path id="Path_112" data-name="Path 112" d="M167.172,11.958h-1.394a13.5,13.5,0,0,1-1.129-2.92L162.717.983a1.526,1.526,0,0,0-2.851,0l-1.934,8.055a13.468,13.468,0,0,1-1.127,2.92h-1.394A4.416,4.416,0,0,0,151,16.369v1.47h20.583v-1.47A4.416,4.416,0,0,0,167.172,11.958Z" transform="translate(-151 -0.001)" fill="#fff"/>
      </g>
    </g>
  </g>
</svg>
