<svg id="parking" xmlns="http://www.w3.org/2000/svg" width="48.734" height="48.734" viewBox="0 0 48.734 48.734">
  <path id="Path_144" data-name="Path 144" d="M22.939,11.47a11.47,11.47,0,1,0-11.47,11.47A11.483,11.483,0,0,0,22.939,11.47ZM10.9,15.8a1.428,1.428,0,0,1-2.855,0c0-.881,0-7.542,0-8.566A1.428,1.428,0,0,1,9.473,5.806h2.855a4.283,4.283,0,1,1,0,8.566H10.9Z" fill="#810808"/>
  <path id="Path_145" data-name="Path 145" d="M117.38,92.428A1.429,1.429,0,0,0,115.953,91h-1.428v2.855h1.428A1.429,1.429,0,0,0,117.38,92.428Z" transform="translate(-103.624 -82.338)" fill="#810808"/>
  <path id="Path_146" data-name="Path 146" d="M81.663,281.976V270.254a14.392,14.392,0,0,1-2.855,0v11.755A4.291,4.291,0,0,0,76,286.03v5.806a1.428,1.428,0,0,0,1.428,1.428h5.711a1.428,1.428,0,0,0,1.428-1.428V286.03A4.29,4.29,0,0,0,81.663,281.976Z" transform="translate(-68.766 -244.53)" fill="#810808"/>
  <path id="Path_147" data-name="Path 147" d="M197,483.428a1.428,1.428,0,0,0,1.428,1.428h4.278a1.428,1.428,0,0,0,1.428-1.427V482H197Z" transform="translate(-178.249 -436.122)" fill="#909090"/>
  <path id="Path_148" data-name="Path 148" d="M437,483.428a1.428,1.428,0,0,0,1.428,1.428h4.279a1.428,1.428,0,0,0,1.428-1.427V482H437Z" transform="translate(-395.405 -436.122)" fill="#909090"/>
  <path id="Path_149" data-name="Path 149" d="M262.3,212.17a1.428,1.428,0,0,0-1.4-1.17H244.083a1.428,1.428,0,0,0-1.4,1.17l-.919,5.016h21.462Z" transform="translate(-218.749 -190.916)" fill="#909090"/>
  <path id="Path_150" data-name="Path 150" d="M223.255,306.053l-.01-.053H200.737l-.01.053A6.953,6.953,0,0,0,197,312.19V319.9h29.983V312.19A6.953,6.953,0,0,0,223.255,306.053Zm-20.544,9.084a1.428,1.428,0,1,1,1.428-1.428A1.428,1.428,0,0,1,202.711,315.138Zm14.277,0h-9.994a1.428,1.428,0,0,1,0-2.855h9.994a1.428,1.428,0,1,1,0,2.855Zm4.283,0a1.428,1.428,0,1,1,1.428-1.428A1.428,1.428,0,0,1,221.272,315.138Z" transform="translate(-178.249 -276.874)" fill="#810808"/>
</svg>
