<svg id="park" xmlns="http://www.w3.org/2000/svg" width="50.067" height="50.066" viewBox="0 0 50.067 50.066">
  <path id="Path_67" data-name="Path 67" d="M323.467,10.756h1.639a6.32,6.32,0,0,0,.775,1.867l-1.16,1.16a1.467,1.467,0,1,0,2.074,2.074l1.16-1.16a6.32,6.32,0,0,0,1.867.775v1.639a1.467,1.467,0,1,0,2.934,0V15.473a6.318,6.318,0,0,0,1.867-.775l1.16,1.16a1.467,1.467,0,1,0,2.074-2.074l-1.16-1.16a6.32,6.32,0,0,0,.775-1.867h1.64a1.467,1.467,0,1,0,0-2.934h-1.639a6.32,6.32,0,0,0-.775-1.867l1.16-1.16a1.467,1.467,0,1,0-2.074-2.074l-1.16,1.16a6.318,6.318,0,0,0-1.867-.775V1.467a1.467,1.467,0,1,0-2.934,0V3.106a6.319,6.319,0,0,0-1.867.775l-1.16-1.16A1.467,1.467,0,1,0,324.721,4.8l1.16,1.16a6.323,6.323,0,0,0-.775,1.867h-1.639a1.467,1.467,0,1,0,0,2.934Z" transform="translate(-290.513 0)" fill="#cdcdcd"/>
  <path id="Path_68" data-name="Path 68" d="M7.823,22.882a7.789,7.789,0,0,0,5.586-2.347H22.98A7.334,7.334,0,0,0,25.522,6.322,6.34,6.34,0,0,0,15.259,1.361,6.262,6.262,0,0,0,11.343,0,6.363,6.363,0,0,0,4.987,6.356,1.48,1.48,0,0,0,5,6.519l.133,1.194A7.824,7.824,0,0,0,7.823,22.882Z" transform="translate(0 0)" fill="#fff"/>
  <path id="Path_69" data-name="Path 69" d="M48.6,263.664H46.057v-4.107h1.467a1.467,1.467,0,0,0,0-2.934H45.079v-1.956h1.467a1.467,1.467,0,0,0,1.423-1.823l-1.956-7.823a1.467,1.467,0,0,0-1.423-1.111H25.033a1.467,1.467,0,0,0-1.423,1.111l-1.956,7.823a1.467,1.467,0,0,0,1.423,1.823h1.467v1.956H22.1a1.467,1.467,0,0,0,0,2.934h1.467v4.107H16.232v-17.8h.489a5.384,5.384,0,0,0,5.378-5.378V240H19.166v.489a2.447,2.447,0,0,1-2.445,2.445h-.489V240h-1.7a3.438,3.438,0,0,1-1.234.637V248.8H12.81a2.447,2.447,0,0,1-2.445-2.445v-2.934a1.467,1.467,0,0,0-2.934,0v2.934a5.384,5.384,0,0,0,5.378,5.378H13.3v11.93H1.467a1.467,1.467,0,0,0,0,2.934H48.6a1.467,1.467,0,0,0,0-2.934Zm-21.122-9H42.146v1.956H27.478Zm15.646,9H26.5v-4.107H43.124Z" transform="translate(0 -216.531)" fill="#fff"/>
</svg>
