<svg xmlns="http://www.w3.org/2000/svg" width="12.603" height="19.999" viewBox="0 0 12.603 19.999">
  <g id="phone" transform="translate(-71.6)">
    <g id="Group_11" data-name="Group 11" transform="translate(71.6)">
      <path id="Path_7" data-name="Path 7" d="M83.645.56v0A1.892,1.892,0,0,0,82.3,0H73.5a1.9,1.9,0,0,0-1.9,1.9V18.1A1.9,1.9,0,0,0,73.5,20h8.81a1.9,1.9,0,0,0,1.9-1.9V1.9A1.892,1.892,0,0,0,83.645.56ZM77.9,18.712h0a.512.512,0,1,1,.512-.512A.512.512,0,0,1,77.9,18.712ZM82.7,15.5a1.24,1.24,0,0,1-1.24,1.24H74.344A1.24,1.24,0,0,1,73.1,15.5V3.419a1.24,1.24,0,0,1,1.24-1.24h7.115a1.24,1.24,0,0,1,1.24,1.24Z" transform="translate(-71.6)" fill="maroon"/>
    </g>
  </g>
</svg>
