<svg id="police" xmlns="http://www.w3.org/2000/svg" width="39.527" height="35.089" viewBox="0 0 39.527 35.089">
  <path id="Path_70" data-name="Path 70" d="M75.275,395.559c2.435,4.4,8.905,5.522,13.929,5.522s11.494-1.126,13.929-5.522C91.652,393.928,86.761,393.927,75.275,395.559Z" transform="translate(-69.441 -365.992)" fill="#919191"/>
  <path id="Path_71" data-name="Path 71" d="M38.988,41.262C30.76,33.353,23.574,28.63,19.763,28.63S8.767,33.353.539,41.262a1.672,1.672,0,0,0-.156,2.293L4.694,48.9a84.461,84.461,0,0,1,30.139,0l4.311-5.345A1.672,1.672,0,0,0,38.988,41.262ZM24.672,39.679c0,3.177-2.58,4.09-4.382,5a1.161,1.161,0,0,1-1.052,0c-1.683-.852-4.382-1.8-4.382-5V36.154a1.162,1.162,0,0,1,1.163-1.162h7.491a1.162,1.162,0,0,1,1.163,1.162Z" transform="translate(0 -28.63)" fill="#810808"/>
  <path id="Path_72" data-name="Path 72" d="M221.669,143.075c0,1.37.861,1.847,2.582,2.669,1.515-.757,2.584-1.2,2.584-2.669v-2.362h-5.166Z" transform="translate(-204.489 -132.026)" fill="#810808"/>
  <path id="Path_73" data-name="Path 73" d="M69.445,303.926v4.766c11.562-1.66,16.9-1.7,28.762,0v-4.766A81.6,81.6,0,0,0,69.445,303.926Z" transform="translate(-64.063 -281.411)" fill="#919191"/>
</svg>
