<svg xmlns="http://www.w3.org/2000/svg" width="17.803" height="17.8" viewBox="0 0 17.803 17.8">
  <g id="refresh" transform="translate(0.252 0.25)">
    <g id="Group_1130" data-name="Group 1130" transform="translate(0.955)">
      <g id="Group_1129" data-name="Group 1129">
        <path id="Path_85" data-name="Path 85" d="M43.969,2.386A.676.676,0,0,0,43.234,3l-.09.982a8.53,8.53,0,0,0-14.833.711.676.676,0,1,0,1.2.615,7.184,7.184,0,0,1,12.5-.6l-.964-.688a.676.676,0,0,0-.786,1.1l2.922,2.087a.676.676,0,0,0,1.066-.489l.328-3.6A.676.676,0,0,0,43.969,2.386Z" transform="translate(-28.237)" stroke="#000" stroke-width="0.5"/>
      </g>
    </g>
    <g id="Group_1132" data-name="Group 1132" transform="translate(0.001 9.965)">
      <g id="Group_1131" data-name="Group 1131" transform="translate(0)">
        <path id="Path_86" data-name="Path 86" d="M15.978,296.647a.676.676,0,0,0-.909.294,7.184,7.184,0,0,1-12.5.6l.964.688a.676.676,0,0,0,.786-1.1L1.4,295.039a.676.676,0,0,0-1.066.489L0,299.127a.676.676,0,1,0,1.346.123l.09-.982a8.53,8.53,0,0,0,14.833-.711A.676.676,0,0,0,15.978,296.647Z" transform="translate(-0.001 -294.913)" stroke="#000" stroke-width="0.5"/>
      </g>
    </g>
  </g>
</svg>
