<svg xmlns="http://www.w3.org/2000/svg" width="50.133" height="50.241" viewBox="0 0 50.133 50.241">
  <g id="school" transform="translate(-0.546)">
    <path id="Path_101" data-name="Path 101" d="M128.546,266.732h24.968v-26.64H128.546Zm14.942-23.543h2.949v4.718h-2.949Zm0,7.864h2.949v4.718h-2.949Zm0,7.864h2.949v4.718h-2.949Zm-7.864-15.728h2.949v4.718h-2.949Zm0,7.864h2.949v4.718h-2.949Zm0,7.864h2.949v4.718h-2.949Z" transform="translate(-115.417 -216.491)" fill="#fff"/>
    <path id="Path_102" data-name="Path 102" d="M.546,296.028h9.633V272.582H.546v23.446Zm3.342-18.015H6.837v4.718H3.888Zm0,7.864H6.837V290.6H3.888Z" transform="translate(0 -245.787)" fill="#cdcdcd"/>
    <path id="Path_103" data-name="Path 103" d="M412.546,272.582v23.446h9.633V272.582Zm6.291,18.014h-2.949v-4.718h2.949Zm0-7.864h-2.949v-4.718h2.949Z" transform="translate(-371.5 -245.787)" fill="#cdcdcd"/>
    <path id="Path_104" data-name="Path 104" d="M127.173,11l-.005-1.749h9.445V.009c-8.949,0-12.386-.006-12.386,0-.055,0-.038-.851,0,10.988l-9.966,6.407h-2.713v2.949h28.311V17.408h-2.713Z" transform="translate(-100.088 0)" fill="#fff"/>
  </g>
</svg>
