<svg xmlns="http://www.w3.org/2000/svg" width="20.229" height="20.161" viewBox="0 0 20.229 20.161">
  <path id="assembly-area" d="M20.229,16.272A1.029,1.029,0,0,1,19.2,17.3H16.709v2.332a1.029,1.029,0,0,1-2.057,0V17.3H5.463v2.332a1.029,1.029,0,0,1-2.057,0V17.3H1.1a1.029,1.029,0,0,1,0-2.057H3.406V6.055H1.029A1.029,1.029,0,0,1,1.029,4H3.406V1.529a1.029,1.029,0,1,1,2.057,0v2.4h9.189v-2.4a1.029,1.029,0,0,1,2.057,0V4h2.423a1.029,1.029,0,0,1,0,2.057H16.778v9.189H19.2A1.029,1.029,0,0,1,20.229,16.272Z" transform="translate(0 -0.5)" fill="maroon"/>
</svg>
