<svg xmlns="http://www.w3.org/2000/svg" width="40" height="28.333" viewBox="0 0 40 28.333">
  <path id="Icon_map-swimming" data-name="Icon map-swimming" d="M40.72,32.653a5.936,5.936,0,0,1-2.459-.534,6.1,6.1,0,0,0-5.077,0,5.936,5.936,0,0,1-4.919,0,6.108,6.108,0,0,0-5.081,0,5.956,5.956,0,0,1-4.928,0,6.083,6.083,0,0,0-5.07,0,5.951,5.951,0,0,1-4.927,0,6.215,6.215,0,0,0-2.54-.553,6.227,6.227,0,0,0-2.531.553,6,6,0,0,1-2.469.534V28.99a6.225,6.225,0,0,0,2.469-.526,6,6,0,0,1,5.071,0,6.033,6.033,0,0,0,4.927,0,6,6,0,0,1,5.07,0,6.035,6.035,0,0,0,4.928,0,6.09,6.09,0,0,1,2.541-.562,6.168,6.168,0,0,1,2.54.562,6.015,6.015,0,0,0,4.919,0,6.015,6.015,0,0,1,5.076,0,6.15,6.15,0,0,0,2.46.526ZM34.927,22.29a4.728,4.728,0,1,0-4.76-4.732A4.632,4.632,0,0,0,34.927,22.29ZM7.213,24.95a5.872,5.872,0,0,1,1.048.363,5.947,5.947,0,0,0,4.927,0,5.985,5.985,0,0,1,5.07,0,5.947,5.947,0,0,0,4.927,0,6.225,6.225,0,0,1,2.541-.563,6.3,6.3,0,0,1,2.54.563,6.016,6.016,0,0,0,2.46.534,6.134,6.134,0,0,0,1.831-.288L24.618,11.346l9.232-1.672a2.733,2.733,0,0,0,2.338-2.666A2.7,2.7,0,0,0,33.471,4.32l-.308.009L18.9,6.906a2.548,2.548,0,0,0-1.572,3.468l.122.287,3.722,6.669L7.213,24.95Z" transform="translate(-0.72 -4.32)" fill="#810808"/>
</svg>
