<svg id="Group_322" data-name="Group 322" xmlns="http://www.w3.org/2000/svg" width="20.037" height="16.028" viewBox="0 0 20.037 16.028">
  <g id="twitter" transform="translate(0 0)">
    <g id="Group_319" data-name="Group 319">
      <path id="Path_57" data-name="Path 57" d="M20.037,49.9a8.669,8.669,0,0,1-2.367.639A4.033,4.033,0,0,0,19.477,48.3a8.288,8.288,0,0,1-2.6.979,4.147,4.147,0,0,0-3-1.28,4.089,4.089,0,0,0-4.01,4.968A11.688,11.688,0,0,1,1.4,48.737a4,4,0,0,0,1.262,5.405,4.105,4.105,0,0,1-1.856-.5v.044a4.079,4.079,0,0,0,3.291,3.974,4.161,4.161,0,0,1-1.077.133,3.687,3.687,0,0,1-.778-.069,4.139,4.139,0,0,0,3.838,2.817A8.337,8.337,0,0,1,.983,62.269,7.813,7.813,0,0,1,0,62.214a11.7,11.7,0,0,0,6.3,1.815A11.516,11.516,0,0,0,17.993,52.52c0-.179-.006-.351-.015-.523A8.126,8.126,0,0,0,20.037,49.9Z" transform="translate(0 -48)" fill="#676767"/>
    </g>
  </g>
</svg>
