<svg xmlns="http://www.w3.org/2000/svg" width="14.983" height="12.452" viewBox="0 0 14.983 12.452">
  <g id="undo" transform="translate(0 -43.255)">
    <g id="Group_1178" data-name="Group 1178" transform="translate(0 43.255)">
      <g id="Group_1177" data-name="Group 1177">
        <path id="Path_97" data-name="Path 97" d="M4.176,50.568,1.426,47.419,4.176,44.27a.612.612,0,0,0-.922-.806l-3.1,3.552a.612.612,0,0,0,0,.806l3.1,3.552a.612.612,0,0,0,.922-.806Z" transform="translate(0 -43.255)" fill="#5e5e5e"/>
      </g>
    </g>
    <g id="Group_1180" data-name="Group 1180" transform="translate(0 46.807)">
      <g id="Group_1179" data-name="Group 1179">
        <path id="Path_98" data-name="Path 98" d="M10.533,164.619H.612a.612.612,0,0,0,0,1.225h9.921a3.225,3.225,0,1,1,0,6.451h-9.1a.612.612,0,0,0,0,1.225h9.1a4.45,4.45,0,1,0,0-8.9Z" transform="translate(0 -164.619)" fill="#5e5e5e"/>
      </g>
    </g>
  </g>
</svg>
