<svg id="Group_323" data-name="Group 323" xmlns="http://www.w3.org/2000/svg" width="18.432" height="12.905" viewBox="0 0 18.432 12.905">
  <path id="youtube" d="M18.053-4.063a2.309,2.309,0,0,0-1.624-1.625,53.95,53.95,0,0,0-7.212-.395A56.052,56.052,0,0,0,2-5.7,2.356,2.356,0,0,0,.38-4.063,24.331,24.331,0,0,0,0,.371,24.242,24.242,0,0,0,.38,4.8,2.309,2.309,0,0,0,2,6.428a54.048,54.048,0,0,0,7.212.395,56.052,56.052,0,0,0,7.212-.38,2.309,2.309,0,0,0,1.625-1.624A24.339,24.339,0,0,0,18.432.386a23.1,23.1,0,0,0-.38-4.448ZM7.379,3.134V-2.393l4.8,2.763Zm0,0" transform="translate(-0.001 6.082)" fill="#676767"/>
</svg>
